<svg xmlns="http://www.w3.org/2000/svg"  viewBox="0 0 30 30" width="30px" height="30px"><path fill="#8bb7f0" d="M4,27.5c-0.8,0-1.5-0.7-1.5-1.5V4c0-0.8,0.7-1.5,1.5-1.5h22c0.8,0,1.5,0.7,1.5,1.5v22 c0,0.8-0.7,1.5-1.5,1.5H4z"/><path fill="#4e7ab5" d="M26,3c0.6,0,1,0.4,1,1v22c0,0.6-0.4,1-1,1H4c-0.6,0-1-0.4-1-1V4c0-0.6,0.4-1,1-1H26 M26,2H4 C2.9,2,2,2.9,2,4v22c0,1.1,0.9,2,2,2h22c1.1,0,2-0.9,2-2V4C28,2.9,27.1,2,26,2L26,2z"/><path fill="#fff" d="M12.8 20.8L7.8 15.7 9.2 14.3 12.8 17.9 21.8 8.9 23.2 10.4z"/></svg>